<svg width="156" height="153" viewBox="0 0 156 153" fill="none" xmlns="http://www.w3.org/2000/svg">
<path d="M0.000121832 141.452C0.000122024 145 2.98218 147.888 6.53011 147.895C21.5124 147.927 54.7874 148.835 79.0001 148C89.6835 147.256 97.2078 145.764 102.266 145C115.5 143 126.169 135.497 133.35 128.3C140.531 121.103 146.227 112.56 150.113 103.157C154 93.7545 156 83.6767 156 73.4992C156 63.3218 154 53.244 150.113 43.8413C146.227 34.4385 140.531 25.895 133.35 18.6984C126.169 11.5019 108.261 0.499949 89.0001 0.49995C76.8862 0.499951 26.7043 0.873763 6.82409 0.974487C3.04145 0.993637 0.000120631 4.06569 0.00012082 7.84839C0.00012101 11.6311 3.03387 14.6798 6.81626 14.6323C26.7156 14.3824 79.5579 13.5 89.0001 13.5C100 13.4999 116.547 24.06 122.273 29.7988C128 35.5377 132.542 42.3506 135.641 49.8487C138.74 57.3469 140.336 65.3833 140.336 73.4992C140.336 81.6151 138.74 89.6516 135.641 97.1497C132.542 104.648 128 111.461 122.273 117.2C116.547 122.938 109.748 127.491 102.266 130.597C95.6917 133.326 27.9585 134.891 6.13222 135.231C2.7354 135.283 0.000121649 138.055 0.000121832 141.452Z" fill="url(#paint0_linear_3129_175)"/>
<path d="M20.0001 120.582C20.0001 123.574 22.4053 125.984 25.3973 125.928C42.3289 125.611 89.3141 124.261 94.95 121.928C101.446 119.239 107.348 115.298 112.319 110.33C117.291 105.363 121.234 99.4647 123.925 92.9738C126.615 86.4829 128 79.526 128 72.5003C128 65.4745 126.615 58.5176 123.925 52.0267C121.234 45.5358 117.291 39.638 112.319 34.67C107.348 29.7021 101.286 24.7245 94.9499 23.0727C88.0614 21.2769 42.1149 21.0372 25.3963 21.0052C22.4038 20.9995 20.0001 23.4262 20.0001 26.4187C20.0001 29.4112 22.3978 31.8218 25.3902 31.794C41.5878 31.6435 86.3577 31.246 90.7999 33.0847C95.9797 35.2287 100.686 38.3713 104.651 42.3329C108.615 46.2945 111.76 50.9977 113.906 56.1738C116.051 61.3499 117.155 66.8977 117.155 72.5003C117.155 78.1028 116.051 83.6506 113.906 88.8267C111.76 94.0028 108.615 98.706 104.651 102.668C100.686 106.629 95.9797 109.772 90.7999 111.916C86.3577 113.754 41.5873 114.828 25.3899 115.096C22.3978 115.146 20.0001 117.589 20.0001 120.582Z" fill="url(#paint1_linear_3129_175)"/>
<path d="M20.0001 120.582C20.0001 123.574 22.4053 125.984 25.3973 125.928C42.3289 125.611 89.3141 124.261 94.95 121.928C101.446 119.239 107.348 115.298 112.319 110.33C117.291 105.363 121.234 99.4647 123.925 92.9738C126.615 86.4829 128 79.526 128 72.5003C128 65.4745 126.615 58.5176 123.925 52.0267C121.234 45.5358 117.291 39.638 112.319 34.67C107.348 29.7021 101.286 24.7245 94.9499 23.0727C88.0614 21.2769 42.1149 21.0372 25.3963 21.0052C22.4038 20.9995 20.0001 23.4262 20.0001 26.4187C20.0001 29.4112 22.3978 31.8218 25.3902 31.794C41.5878 31.6435 86.3577 31.246 90.7999 33.0847C95.9797 35.2287 100.686 38.3713 104.651 42.3329C108.615 46.2945 111.76 50.9977 113.906 56.1738C116.051 61.3499 117.155 66.8977 117.155 72.5003C117.155 78.1028 116.051 83.6506 113.906 88.8267C111.76 94.0028 108.615 98.706 104.651 102.668C100.686 106.629 95.9797 109.772 90.7999 111.916C86.3577 113.754 41.5873 114.828 25.3899 115.096C22.3978 115.146 20.0001 117.589 20.0001 120.582Z" fill="url(#paint2_linear_3129_175)"/>
<g filter="url(#filter0_d_3129_175)">
<path d="M0.00012207 54.9998C0.00012207 46.7155 6.71585 39.9998 15.0001 39.9998H18.1049C26.7306 39.9998 33.6015 47.2577 33.3467 55.8797C32.7336 76.6263 32.5942 111.647 38.0001 123C45.8573 139.5 79.0001 148 79.0001 148L0.00012207 149V54.9998Z" fill="#D9D9D9"/>
<path d="M0.00012207 54.9998C0.00012207 46.7155 6.71585 39.9998 15.0001 39.9998H18.1049C26.7306 39.9998 33.6015 47.2577 33.3467 55.8797C32.7336 76.6263 32.5942 111.647 38.0001 123C45.8573 139.5 79.0001 148 79.0001 148L0.00012207 149V54.9998Z" fill="url(#paint3_linear_3129_175)"/>
</g>
<defs>
<filter id="filter0_d_3129_175" x="0.00012207" y="35.9998" width="90" height="117" filterUnits="userSpaceOnUse" color-interpolation-filters="sRGB">
<feFlood flood-opacity="0" result="BackgroundImageFix"/>
<feColorMatrix in="SourceAlpha" type="matrix" values="0 0 0 0 0 0 0 0 0 0 0 0 0 0 0 0 0 0 127 0" result="hardAlpha"/>
<feOffset dx="7"/>
<feGaussianBlur stdDeviation="2"/>
<feComposite in2="hardAlpha" operator="out"/>
<feColorMatrix type="matrix" values="0 0 0 0 0 0 0 0 0 0 0 0 0 0 0 0 0 0 0.25 0"/>
<feBlend mode="normal" in2="BackgroundImageFix" result="effect1_dropShadow_3129_175"/>
<feBlend mode="normal" in="SourceGraphic" in2="effect1_dropShadow_3129_175" result="shape"/>
</filter>
<linearGradient id="paint0_linear_3129_175" x1="0.000121649" y1="73.4993" x2="148" y2="28.4993" gradientUnits="userSpaceOnUse">
<stop stop-color="#A770EF"/>
<stop offset="0.208333" stop-color="#C25490"/>
<stop offset="0.491934" stop-color="#DE9237"/>
<stop offset="1" stop-color="#F7EA7D"/>
</linearGradient>
<linearGradient id="paint1_linear_3129_175" x1="20.0001" y1="72.5002" x2="128" y2="72.5002" gradientUnits="userSpaceOnUse">
<stop stop-color="#A770EF"/>
<stop offset="0.619792" stop-color="#F7EA7D"/>
<stop offset="1" stop-color="#DE9237"/>
</linearGradient>
<linearGradient id="paint2_linear_3129_175" x1="20.0001" y1="72.5003" x2="122.412" y2="41.272" gradientUnits="userSpaceOnUse">
<stop stop-color="#A770EF"/>
<stop offset="0.208333" stop-color="#C25490"/>
<stop offset="0.491934" stop-color="#DE9237"/>
<stop offset="1" stop-color="#F7EA7D"/>
</linearGradient>
<linearGradient id="paint3_linear_3129_175" x1="9.50013" y1="44.4998" x2="160.423" y2="244.947" gradientUnits="userSpaceOnUse">
<stop stop-color="#A770EF"/>
<stop offset="0.375357" stop-color="#C25490"/>
<stop offset="0.671875" stop-color="#DE9237"/>
<stop offset="0.807292" stop-color="#E8B654"/>
</linearGradient>
</defs>
</svg>
