<svg width="27" height="27" viewBox="0 0 27 27" fill="none" xmlns="http://www.w3.org/2000/svg">
<path d="M24.4375 8.8125H2.5625C1.70312 8.8125 1 9.51562 1 10.375V24.4375C1 25.2969 1.70312 26 2.5625 26H24.4375C25.2969 26 26 25.2969 26 24.4375V10.375C26 9.51562 25.2969 8.8125 24.4375 8.8125Z" stroke="#E6E0D2" stroke-width="1.5" stroke-miterlimit="10" stroke-linecap="round"/>
<path d="M1 11.9375V5.85343C1 4.90279 1.70312 4.125 2.5625 4.125H18.1875C19.0469 4.125 19.75 4.90279 19.75 5.85343V5.89145" stroke="#E6E0D2" stroke-width="1.5" stroke-miterlimit="10" stroke-linecap="round"/>
<path d="M13.5 2.56642C13.5 1.70489 12.7969 1 11.9375 1H2.5625C1.70312 1 1 1.70489 1 2.56642V7.25" stroke="#E6E0D2" stroke-width="1.5" stroke-miterlimit="10" stroke-linecap="round"/>
<path d="M18.1875 17.3906V18.9688C18.1875 19.4063 17.8438 19.75 17.4062 19.75H9.59375C9.15625 19.75 8.8125 19.4063 8.8125 18.9688V17.3906" stroke="#E6E0D2" stroke-width="1.5" stroke-miterlimit="10" stroke-linecap="round"/>
</svg>
