<svg width="29" height="30" viewBox="0 0 29 30" fill="none" xmlns="http://www.w3.org/2000/svg">
<path d="M17.4634 13.3333C19.878 13.3333 25.2341 13.3333 26.0244 13.3333C26.8146 13.3333 28 14 28 15.6667C28 17 26.6829 17.6667 26.0244 17.6667H17.4634C17.3537 20.5556 17.4634 26.4667 17.4634 27C17.4634 27.6667 16.4756 29 14.8293 29C13.5122 29 12.1951 27.6667 12.1951 27V22.3333V17.6667H2.97561C2.42683 17.7778 1 17.5333 1 15.6667C1 13.8 2.42683 13.3333 2.97561 13.3333H12.1951C12.1951 10.1111 12.1951 3.53333 12.1951 3C12.1951 2.33333 13.5122 1 14.8293 1C16.1463 1 17.4634 2 17.4634 3C17.4634 3.8 17.4634 9.44444 17.4634 10.6667" stroke="#EFEBE1" stroke-width="2" stroke-linecap="round" stroke-linejoin="round"/>
</svg>
