<svg width="33" height="27" viewBox="0 0 33 27" fill="none" xmlns="http://www.w3.org/2000/svg">
<path d="M31.5949 17.0326V23.2193C31.5949 24.3726 30.2748 25.0257 29.3577 24.3171L26.6758 21.7047L24.2996 19.4535C24.0356 19.2034 23.7021 19.0645 23.3408 19.0645H10.4873H9.33391C8.56964 19.0506 7.94434 18.4253 7.94434 17.661V2.38957C7.94434 1.62531 8.56964 1 9.33391 1H30.1796C30.9439 1 31.5692 1.62531 31.5692 2.38957V12.12" stroke="#E6E0D2" stroke-width="1.5" stroke-miterlimit="10" stroke-linecap="round"/>
<path d="M1.00014 14.9885V24.8128C1.00014 25.7966 2.08547 26.3536 2.83949 25.7492L5.0444 23.5209L6.99799 21.6009C7.21505 21.3875 7.48924 21.269 7.78628 21.269H18.3539H19.3021C19.9305 21.2572 20.4446 20.0742 20.4446 19.4223M1.0213 15.3458V7.04631C1.0213 6.39444 1.5354 5.86108 2.16375 5.86108H7.78628" stroke="#E6E0D2" stroke-width="1.5" stroke-miterlimit="10" stroke-linecap="round"/>
<rect x="11.4163" y="6.55518" width="12.5" height="2.08333" rx="1.04167" fill="#E6E0D2"/>
<rect x="11.4163" y="10.7222" width="16.6667" height="2.08333" rx="1.04167" fill="#E6E0D2"/>
</svg>
