<svg width="25" height="24" viewBox="0 0 25 24" fill="none" xmlns="http://www.w3.org/2000/svg">
<path d="M9.11334 18.9434C9.11334 21.1803 7.29363 23.0001 5.05667 23.0001C2.81971 23.0001 1 21.1803 1 18.9434C1 16.7064 2.81971 14.8867 5.05667 14.8867C5.69414 14.8867 6.30844 15.0374 6.85319 15.304" stroke="#E6E0D2" stroke-width="2" stroke-miterlimit="10" stroke-linecap="round"/>
<path d="M23.0215 16.6255C23.0215 18.8625 21.2018 20.6822 18.9649 20.6822C16.7279 20.6822 14.9082 18.8625 14.9082 16.6255C14.9082 14.3886 16.7279 12.5688 18.9649 12.5688C19.5792 12.5688 20.1587 12.7079 20.6803 12.9513" stroke="#E6E0D2" stroke-width="2" stroke-miterlimit="10" stroke-linecap="round"/>
<path d="M9.11328 18.9435V4.28159C9.11328 3.71366 9.51895 3.22686 10.0869 3.13413L22.8828 1.00148C22.9523 0.989894 23.0219 1.04785 23.0219 1.11739V16.6255" stroke="#E6E0D2" stroke-width="2" stroke-miterlimit="10" stroke-linecap="round"/>
<path d="M20 5L10 7" stroke="#E6E0D2" stroke-width="2" stroke-miterlimit="10" stroke-linecap="round"/>
</svg>
