<svg width="21" height="32" viewBox="0 0 21 32" fill="none" xmlns="http://www.w3.org/2000/svg">
<path d="M4.16211 15.233C4.16211 18.728 6.9929 21.5588 10.4879 21.5588C13.9829 21.5588 16.8137 18.728 16.8137 15.233V7.32579C16.8137 3.83079 13.9829 1 10.4879 1C6.9929 1 4.16211 3.83079 4.16211 7.32579V11.2794" stroke="#E9E2D1" stroke-width="2" stroke-miterlimit="10" stroke-linecap="round"/>
<path d="M19.9774 15.2334C19.9774 20.468 16.0554 24.7221 11.2161 24.7221H9.76122C4.96943 24.7221 1.07907 20.5629 1 15.4074C1 15.3125 1.07907 15.2334 1.15814 15.2334H9.69796" stroke="#E9E2D1" stroke-width="2" stroke-miterlimit="10" stroke-linecap="round"/>
<path d="M4.95361 31H16.0237" stroke="#E9E2D1" stroke-width="2" stroke-miterlimit="10" stroke-linecap="round"/>
<path d="M12.0693 30.2089V24.7529" stroke="#E9E2D1" stroke-width="2" stroke-miterlimit="10" stroke-linecap="round"/>
<path d="M8.9082 30.2089V27.8525" stroke="#E9E2D1" stroke-width="2" stroke-miterlimit="10" stroke-linecap="round"/>
</svg>
