<svg width="100" height="100" viewBox="0 0 100 100" fill="none" xmlns="http://www.w3.org/2000/svg">
<g filter="url(#filter0_d_2747_111)">
<circle cx="50" cy="46" r="43.5" stroke="#F8F0E4" stroke-width="5"/>
</g>
<g filter="url(#filter1_d_2747_111)">
<path d="M75.0166 42.9423L39.9816 19.0448C37.5476 17.3852 34.2285 19.1185 34.2285 22.1057V69.9008C34.2285 72.8511 37.5476 74.6213 39.9816 72.9617L75.0166 49.0642C77.1556 47.5522 77.1556 44.4175 75.0166 42.9423Z" fill="#E6E0D2" fill-opacity="0.5"/>
<path d="M75.0166 42.9423L39.9816 19.0448C37.5476 17.3852 34.2285 19.1185 34.2285 22.1057V69.9008C34.2285 72.8511 37.5476 74.6213 39.9816 72.9617L75.0166 49.0642C77.1556 47.5522 77.1556 44.4175 75.0166 42.9423Z" stroke="#F8F0E4" stroke-width="5" stroke-miterlimit="10"/>
</g>
<defs>
<filter id="filter0_d_2747_111" x="0" y="0" width="100" height="100" filterUnits="userSpaceOnUse" color-interpolation-filters="sRGB">
<feFlood flood-opacity="0" result="BackgroundImageFix"/>
<feColorMatrix in="SourceAlpha" type="matrix" values="0 0 0 0 0 0 0 0 0 0 0 0 0 0 0 0 0 0 127 0" result="hardAlpha"/>
<feOffset dy="4"/>
<feGaussianBlur stdDeviation="2"/>
<feColorMatrix type="matrix" values="0 0 0 0 0 0 0 0 0 0 0 0 0 0 0 0 0 0 0.25 0"/>
<feBlend mode="normal" in2="BackgroundImageFix" result="effect1_dropShadow_2747_111"/>
<feBlend mode="normal" in="SourceGraphic" in2="effect1_dropShadow_2747_111" result="shape"/>
</filter>
<filter id="filter1_d_2747_111" x="27.7285" y="12.896" width="55.3921" height="68.2104" filterUnits="userSpaceOnUse" color-interpolation-filters="sRGB">
<feFlood flood-opacity="0" result="BackgroundImageFix"/>
<feColorMatrix in="SourceAlpha" type="matrix" values="0 0 0 0 0 0 0 0 0 0 0 0 0 0 0 0 0 0 127 0" result="hardAlpha"/>
<feOffset dy="1"/>
<feGaussianBlur stdDeviation="2"/>
<feColorMatrix type="matrix" values="0 0 0 0 0 0 0 0 0 0 0 0 0 0 0 0 0 0 0.25 0"/>
<feBlend mode="normal" in2="BackgroundImageFix" result="effect1_dropShadow_2747_111"/>
<feBlend mode="normal" in="SourceGraphic" in2="effect1_dropShadow_2747_111" result="shape"/>
</filter>
</defs>
</svg>
