<svg width="33" height="33" viewBox="0 0 33 33" fill="none" xmlns="http://www.w3.org/2000/svg">
<path d="M12.6189 24.2379C19.0359 24.2379 24.2379 19.0359 24.2379 12.6189C24.2379 6.20197 19.0359 1 12.6189 1C6.20197 1 1 6.20197 1 12.6189C1 19.0359 6.20197 24.2379 12.6189 24.2379Z" stroke="#F3FEFF" stroke-width="2" stroke-miterlimit="10" stroke-linecap="round"/>
<path d="M17.5991 19.679C16.2524 20.4677 14.6552 20.9184 12.9327 20.9184C8.17241 20.9184 4.32031 17.4538 4.32031 13.1724" stroke="#F3FEFF" stroke-width="2" stroke-miterlimit="10" stroke-linecap="round"/>
<path d="M22.8837 20.4828L31.51 29.1091C32.163 29.762 32.163 30.8394 31.51 31.4924C31.1835 31.8189 30.7591 31.9821 30.3183 31.9821C29.8776 31.9821 29.4531 31.8189 29.1267 31.4924L21.8984 24.2642" stroke="#F3FEFF" stroke-width="2" stroke-miterlimit="10" stroke-linecap="round"/>
</svg>
