<svg width="19" height="19" viewBox="0 0 19 19" fill="none" xmlns="http://www.w3.org/2000/svg">
<path d="M5.41288 12.651L3.68482 17.7367C3.62214 17.9157 3.79226 18.068 3.91761 17.9605L9.40625 13.5732C9.45997 13.5195 9.53159 13.5195 9.58532 13.5732L15.074 17.9605C15.1993 18.0769 15.3605 17.9157 15.3067 17.7367L13.0952 11.2363C13.0594 11.1199 13.0952 11.0035 13.1937 10.9318L17.9123 7.57418C18.0555 7.47569 17.9839 7.25186 17.8048 7.25186H11.7342" stroke="#E6E0D2" stroke-width="1.5" stroke-miterlimit="10" stroke-linecap="round"/>
<path d="M11.1071 5.46119L9.62079 1.10073C9.57602 0.966424 9.388 0.966424 9.34323 1.10073L7.31074 7.07285C7.27493 7.18029 7.16747 7.25193 7.06003 7.25193H1.17744C1.00732 7.25193 0.935691 7.47576 1.07 7.57425L5.7886 10.9319" stroke="#E6E0D2" stroke-width="1.5" stroke-miterlimit="10" stroke-linecap="round"/>
</svg>
