<svg width="19" height="19" viewBox="0 0 19 19" fill="none" xmlns="http://www.w3.org/2000/svg">
<path d="M4.13158 12.6316C5.8611 12.6316 7.26316 11.2295 7.26316 9.50002C7.26316 7.77049 5.8611 6.36844 4.13158 6.36844C2.40206 6.36844 1 7.77049 1 9.50002C1 11.2295 2.40206 12.6316 4.13158 12.6316Z" stroke="#E6E0D2" stroke-width="1.5" stroke-miterlimit="10" stroke-linecap="round"/>
<path d="M11.7905 3.55895C12.0589 2.10053 13.3384 1 14.8684 1C16.5953 1 18 2.40474 18 4.13158C18 5.85842 16.5953 7.26316 14.8684 7.26316C14.3853 7.26316 13.9379 7.15579 13.5263 6.95895" stroke="#E6E0D2" stroke-width="1.5" stroke-miterlimit="10" stroke-linecap="round"/>
<path d="M13.3652 12.1216C13.8126 11.8801 14.3226 11.7369 14.8684 11.7369C16.5952 11.7369 18 13.1416 18 14.8685C18 16.5953 16.5952 18.0001 14.8684 18.0001C13.1416 18.0001 11.7368 16.5953 11.7368 14.8685C11.7368 14.3674 11.8531 13.8932 12.0589 13.4727" stroke="#E6E0D2" stroke-width="1.5" stroke-miterlimit="10" stroke-linecap="round"/>
<path d="M7.68359 10.8241L10.3946 12.1841" stroke="#E6E0D2" stroke-width="1.5" stroke-miterlimit="10" stroke-linecap="round"/>
<path d="M14.8684 4.13156L7.26318 8.15788" stroke="#E6E0D2" stroke-width="1.5" stroke-miterlimit="10" stroke-linecap="round"/>
</svg>
