<svg width="24" height="33" viewBox="0 0 24 33" fill="none" xmlns="http://www.w3.org/2000/svg">
<path d="M9.95998 20H8.83998C4.50559 20 1 16.87 1 13V9.00003C1 8.45003 1.504 8.00003 2.12 8.00003H16.68C17.296 8.00003 17.8 8.45003 17.8 9.00003V13C17.8 16.86 14.2944 20 9.95998 20Z" stroke="#E6E0D2" stroke-width="1.5" stroke-miterlimit="10" stroke-linecap="round"/>
<path d="M1 20H17.8" stroke="#E6E0D2" stroke-width="1.5" stroke-miterlimit="10" stroke-linecap="round"/>
<path d="M9.3999 3.99999V1" stroke="#E6E0D2" stroke-width="1.5" stroke-miterlimit="10" stroke-linecap="round"/>
<path d="M6.03955 5.00002V2.00003" stroke="#E6E0D2" stroke-width="1.5" stroke-miterlimit="10" stroke-linecap="round"/>
<path d="M12.7593 5.00002V2.00003" stroke="#E6E0D2" stroke-width="1.5" stroke-miterlimit="10" stroke-linecap="round"/>
<path d="M19.435 10.9999C20.9806 10.9999 22.235 12.1199 22.235 13.4999C22.235 14.8799 20.9806 15.9999 19.435 15.9999H19.2446" stroke="#E6E0D2" stroke-width="1.5" stroke-miterlimit="10" stroke-linecap="round"/>
<circle cx="18" cy="20" r="6" fill="url(#paint0_linear_145_116)"/>
<g filter="url(#filter0_d_145_116)">
<rect x="17" y="16" width="1.5" height="8.5" rx="0.75" fill="#F2EDE2"/>
</g>
<rect x="22" y="19.5" width="1.5" height="8.5" rx="0.75" transform="rotate(90 22 19.5)" fill="#F2EDE2"/>
<defs>
<filter id="filter0_d_145_116" x="13" y="16" width="9.5" height="16.5" filterUnits="userSpaceOnUse" color-interpolation-filters="sRGB">
<feFlood flood-opacity="0" result="BackgroundImageFix"/>
<feColorMatrix in="SourceAlpha" type="matrix" values="0 0 0 0 0 0 0 0 0 0 0 0 0 0 0 0 0 0 127 0" result="hardAlpha"/>
<feOffset dy="4"/>
<feGaussianBlur stdDeviation="2"/>
<feColorMatrix type="matrix" values="0 0 0 0 0 0 0 0 0 0 0 0 0 0 0 0 0 0 0.25 0"/>
<feBlend mode="normal" in2="BackgroundImageFix" result="effect1_dropShadow_145_116"/>
<feBlend mode="normal" in="SourceGraphic" in2="effect1_dropShadow_145_116" result="shape"/>
</filter>
<linearGradient id="paint0_linear_145_116" x1="13.5652" y1="24.9565" x2="24" y2="16.3478" gradientUnits="userSpaceOnUse">
<stop stop-color="#DE8820"/>
<stop offset="1" stop-color="#F7EA7D"/>
</linearGradient>
</defs>
</svg>
