<svg width="33" height="21" viewBox="0 0 33 21" fill="none" xmlns="http://www.w3.org/2000/svg">
<path d="M1 6V3.70338C1 2.80707 1.58667 2.07373 2.30372 2.07373H20.467C21.184 2.07373 21.7707 2.80707 21.7707 3.70338V18.3702C21.7707 19.2665 21.184 19.9999 20.467 19.9999H2.30372C1.58667 19.9999 1 19.2665 1 18.3702V6ZM1 6H15.8477L18.3477 8.5" stroke="#E6E0D2" stroke-width="2" stroke-miterlimit="10" stroke-linecap="round" stroke-linejoin="round"/>
<path d="M21.769 8.59213V15.1107M22.2889 17.5212L29.5567 19.8597C29.8329 19.9486 30.1365 19.9156 30.3606 19.7311C30.7156 19.439 31.1988 18.9371 31.1988 18.37V2.07353C31.1988 1.17723 29.9627 1.25877 29.5698 1.25877L25.6808 2.88836" stroke="#E6E0D2" stroke-width="2" stroke-miterlimit="10" stroke-linecap="round"/>
</svg>
